<svg width="73" height="74" viewBox="0 0 23 24" fill="none" xmlns="http://www.w3.org/2000/svg">
<g filter="url(#filter0_d_740_127)">
<circle cx="16.3669" cy="11.2124" r="7.89304" fill="#F53838"/>
</g>
<path d="M16.3668 3.31934C12.0075 3.31934 8.47369 6.85313 8.47369 11.2124C8.47369 15.5717 12.0075 19.1055 16.3668 19.1055C20.726 19.1055 24.2598 15.5717 24.2598 11.2124C24.2598 6.85313 20.726 3.31934 16.3668 3.31934ZM18.2364 8.77378H17.05C16.9094 8.77378 16.7532 8.95877 16.7532 9.20461V10.0613H18.2373L18.0128 11.2831H16.7532V14.9509H15.353V11.2831H14.0827V10.0613H15.353V9.34274C15.353 8.3117 16.0683 7.47389 17.05 7.47389H18.2364V8.77378Z" fill="white"/>
<defs>
<filter id="filter0_d_740_127" x="0.0169544" y="0.970208" width="32.6998" height="32.6998" filterUnits="userSpaceOnUse" color-interpolation-filters="sRGB">
<feFlood flood-opacity="0" result="BackgroundImageFix"/>
<feColorMatrix in="SourceAlpha" type="matrix" values="0 0 0 0 0 0 0 0 0 0 0 0 0 0 0 0 0 0 127 0" result="hardAlpha"/>
<feOffset dy="6.10773"/>
<feGaussianBlur stdDeviation="4.22843"/>
<feColorMatrix type="matrix" values="0 0 0 0 0.0658854 0 0 0 0 0.0730469 0 0 0 0 0.1375 0 0 0 0.08 0"/>
<feBlend mode="normal" in2="BackgroundImageFix" result="effect1_dropShadow_740_127"/>
<feBlend mode="normal" in="SourceGraphic" in2="effect1_dropShadow_740_127" result="shape"/>
</filter>
</defs>
</svg>
