<svg width="54" height="54" viewBox="0 0 24 24" fill="none" xmlns="http://www.w3.org/2000/svg">
<g filter="url(#filter0_d_740_133)">
<circle cx="16.7323" cy="11.2124" r="7.89304" fill="#F53838"/>
</g>
<path d="M19.1988 11.2124C19.1988 11.8666 18.939 12.494 18.4764 12.9565C18.0138 13.4191 17.3864 13.679 16.7322 13.679C16.0781 13.679 15.4507 13.4191 14.9881 12.9565C14.5255 12.494 14.2657 11.8666 14.2657 11.2124C14.2657 11.0718 14.2805 10.9345 14.3059 10.8013H13.4435V14.0876C13.4435 14.3162 13.6285 14.5012 13.857 14.5012H19.6083C19.7178 14.501 19.8228 14.4573 19.9002 14.3798C19.9776 14.3022 20.021 14.1972 20.021 14.0876V10.8013H19.1585C19.184 10.9345 19.1988 11.0718 19.1988 11.2124ZM16.7322 12.8568C16.9482 12.8567 17.1621 12.8141 17.3617 12.7314C17.5612 12.6487 17.7425 12.5275 17.8952 12.3748C18.0479 12.222 18.169 12.0406 18.2516 11.8411C18.3342 11.6415 18.3767 11.4276 18.3766 11.2116C18.3766 10.9956 18.334 10.7817 18.2513 10.5822C18.1686 10.3826 18.0474 10.2014 17.8946 10.0487C17.7418 9.89596 17.5605 9.77485 17.3609 9.69224C17.1613 9.60963 16.9474 9.56714 16.7314 9.5672C16.2952 9.56731 15.8769 9.7407 15.5685 10.0492C15.2601 10.3578 15.0869 10.7762 15.087 11.2124C15.0871 11.6486 15.2605 12.067 15.5691 12.3753C15.8776 12.6837 16.296 12.8569 16.7322 12.8568ZM18.7055 9.4858H19.6913C19.7568 9.4858 19.8196 9.45984 19.866 9.4136C19.9124 9.36737 19.9386 9.30463 19.9388 9.23914V8.25333C19.9388 8.18769 19.9127 8.12474 19.8663 8.07833C19.8199 8.03192 19.757 8.00585 19.6913 8.00585H18.7055C18.6399 8.00585 18.5769 8.03192 18.5305 8.07833C18.4841 8.12474 18.458 8.18769 18.458 8.25333V9.23914C18.4589 9.3748 18.5699 9.4858 18.7055 9.4858ZM16.7322 3.31934C14.6389 3.31934 12.6312 4.15092 11.151 5.63116C9.67076 7.1114 8.83917 9.11904 8.83917 11.2124C8.83917 13.3058 9.67076 15.3134 11.151 16.7937C12.6312 18.2739 14.6389 19.1055 16.7322 19.1055C17.7688 19.1055 18.7952 18.9013 19.7528 18.5047C20.7104 18.108 21.5806 17.5266 22.3135 16.7937C23.0464 16.0607 23.6278 15.1906 24.0245 14.233C24.4212 13.2753 24.6253 12.2489 24.6253 11.2124C24.6253 10.1759 24.4212 9.14949 24.0245 8.19186C23.6278 7.23423 23.0464 6.3641 22.3135 5.63116C21.5806 4.89822 20.7104 4.31682 19.7528 3.92016C18.7952 3.5235 17.7688 3.31934 16.7322 3.31934ZM20.8432 14.4099C20.8432 14.9123 20.4321 15.3234 19.9298 15.3234H13.5347C13.0324 15.3234 12.6213 14.9123 12.6213 14.4099V8.01489C12.6213 7.51253 13.0324 7.10143 13.5347 7.10143H19.9298C20.4321 7.10143 20.8432 7.51253 20.8432 8.01489V14.4099Z" fill="white"/>
<defs>
<filter id="filter0_d_740_133" x="0.382433" y="0.970208" width="32.6998" height="32.6998" filterUnits="userSpaceOnUse" color-interpolation-filters="sRGB">
<feFlood flood-opacity="0" result="BackgroundImageFix"/>
<feColorMatrix in="SourceAlpha" type="matrix" values="0 0 0 0 0 0 0 0 0 0 0 0 0 0 0 0 0 0 127 0" result="hardAlpha"/>
<feOffset dy="6.10773"/>
<feGaussianBlur stdDeviation="4.22843"/>
<feColorMatrix type="matrix" values="0 0 0 0 0.0658854 0 0 0 0 0.0730469 0 0 0 0 0.1375 0 0 0 0.08 0"/>
<feBlend mode="normal" in2="BackgroundImageFix" result="effect1_dropShadow_740_133"/>
<feBlend mode="normal" in="SourceGraphic" in2="effect1_dropShadow_740_133" result="shape"/>
</filter>
</defs>
</svg>
