<svg width="20" height="20" viewBox="0 0 10 10" fill="none" xmlns="http://www.w3.org/2000/svg">
<path d="M5.01553 8.32975C4.95385 8.32988 4.89276 8.31783 4.83576 8.29428C4.77876 8.27074 4.72697 8.23617 4.68336 8.19257L2.69036 6.1991C2.64546 6.15579 2.60963 6.10397 2.58496 6.04667C2.5603 5.98936 2.5473 5.92772 2.54671 5.86534C2.54613 5.80296 2.55797 5.74108 2.58155 5.68333C2.60514 5.62557 2.63998 5.57309 2.68407 5.52895C2.72815 5.4848 2.78058 5.44988 2.8383 5.42622C2.89602 5.40255 2.95788 5.39062 3.02026 5.39112C3.08265 5.39162 3.14431 5.40453 3.20164 5.42911C3.25898 5.4537 3.31085 5.48945 3.35422 5.53429L5.01506 7.19513L8.0055 4.20563C8.09359 4.11747 8.2131 4.06792 8.33773 4.06787C8.46236 4.06783 8.58191 4.11729 8.67006 4.20539C8.75822 4.29349 8.80778 4.413 8.80782 4.53763C8.80786 4.66226 8.7584 4.7818 8.6703 4.86996L5.34769 8.19257C5.30408 8.23617 5.25229 8.27074 5.19529 8.29428C5.13829 8.31783 5.0772 8.32988 5.01553 8.32975Z" fill="#2FAB73"/>
</svg>
