<svg width="53" height="54" viewBox="0 0 23 24" fill="none" xmlns="http://www.w3.org/2000/svg">
<g filter="url(#filter0_d_740_130)">
<circle cx="16.5496" cy="11.2124" r="7.89304" fill="#F53838"/>
</g>
<path d="M16.5495 3.31934C12.1902 3.31934 8.65643 6.85313 8.65643 11.2124C8.65643 15.5717 12.1902 19.1055 16.5495 19.1055C20.9088 19.1055 24.4426 15.5717 24.4426 11.2124C24.4426 6.85313 20.9088 3.31934 16.5495 3.31934ZM19.7602 9.78508C19.7635 9.8525 19.7643 9.91992 19.7643 9.98569C19.7643 12.0412 18.2013 14.4099 15.3417 14.4099C14.4967 14.4113 13.6693 14.1686 12.959 13.7111C13.0798 13.7259 13.204 13.7316 13.3298 13.7316C14.0583 13.7316 14.7283 13.4841 15.2603 13.0665C14.9361 13.0601 14.622 12.9527 14.3617 12.7594C14.1015 12.566 13.908 12.2963 13.8083 11.9877C14.0411 12.032 14.2809 12.0227 14.5096 11.9606C14.1578 11.8895 13.8414 11.6988 13.614 11.421C13.3867 11.1431 13.2625 10.7952 13.2624 10.4363V10.4173C13.472 10.5333 13.7121 10.604 13.967 10.6122C13.6371 10.3926 13.4036 10.0553 13.3142 9.66926C13.2248 9.28321 13.2863 8.87758 13.486 8.53534C13.8765 9.0155 14.3635 9.4083 14.9154 9.68831C15.4674 9.96832 16.072 10.1293 16.6901 10.1608C16.6115 9.82726 16.6453 9.47709 16.7863 9.16474C16.9273 8.85238 17.1675 8.59535 17.4696 8.43361C17.7717 8.27186 18.1188 8.21446 18.4569 8.27032C18.795 8.32619 19.1052 8.4922 19.3392 8.74253C19.6871 8.6737 20.0208 8.54607 20.3258 8.36515C20.2099 8.72538 19.9671 9.03127 19.6426 9.22598C19.9508 9.18886 20.2517 9.10601 20.5355 8.98015C20.3271 9.2925 20.0645 9.56509 19.7602 9.78508V9.78508Z" fill="white"/>
<defs>
<filter id="filter0_d_740_130" x="0.199694" y="0.970208" width="32.6998" height="32.6998" filterUnits="userSpaceOnUse" color-interpolation-filters="sRGB">
<feFlood flood-opacity="0" result="BackgroundImageFix"/>
<feColorMatrix in="SourceAlpha" type="matrix" values="0 0 0 0 0 0 0 0 0 0 0 0 0 0 0 0 0 0 127 0" result="hardAlpha"/>
<feOffset dy="6.10773"/>
<feGaussianBlur stdDeviation="4.22843"/>
<feColorMatrix type="matrix" values="0 0 0 0 0.0658854 0 0 0 0 0.0730469 0 0 0 0 0.1375 0 0 0 0.08 0"/>
<feBlend mode="normal" in2="BackgroundImageFix" result="effect1_dropShadow_740_130"/>
<feBlend mode="normal" in="SourceGraphic" in2="effect1_dropShadow_740_130" result="shape"/>
</filter>
</defs>
</svg>
